<?xml version="1.0" encoding="utf-8"?>
<!-- Generator: Adobe Illustrator 16.0.0, SVG Export Plug-In . SVG Version: 6.00 Build 0)  -->
<!DOCTYPE svg PUBLIC "-//W3C//DTD SVG 1.1//EN" "http://www.w3.org/Graphics/SVG/1.1/DTD/svg11.dtd">
<svg version="1.1" xmlns="http://www.w3.org/2000/svg" xmlns:xlink="http://www.w3.org/1999/xlink" x="0px" y="0px" width="240px"
	 height="240px" viewBox="0 0 240 240" enable-background="new 0 0 240 240" xml:space="preserve">
<g id="background">
</g>
<g id="drinkGlassSlimABottom">
	<path fill="#00EEE3" d="M101.143,88.345c3.797,5.421,7.393,10.426,9.714,13.352c1.233,1.555,4.046,4.369,6.15,5.016
		c1.426,0.439,2.545,0.398,3.006,0.354c0.461,0.045,1.581,0.086,3.006-0.354c2.104-0.646,4.916-3.461,6.148-5.016
		c2.322-2.926,5.918-7.931,9.717-13.352H101.143z"/>
</g>
<g id="drinkGlassSlimAMiddle">
	<path fill="#00A19A" d="M101.143,88.345h37.742c2.477-3.536,5.035-7.247,7.387-10.681H93.753
		C96.105,81.098,98.665,84.809,101.143,88.345z"/>
</g>
<g id="drinkGlassSlimATop">
	<path fill="#1D71B8" d="M120.082,48.132h-0.137h-43.88c0,0-0.971,1.132-0.485,2.427s8.9,13.432,8.9,13.432
		s4.131,6.165,9.274,13.674h52.518c5.145-7.509,9.275-13.674,9.275-13.674s8.414-12.137,8.9-13.432
		c0.484-1.295-0.486-2.427-0.486-2.427H120.082z"/>
</g>
<g id="drinkGlassSlimAIn">
	<path fill="none" stroke="#00EEE3" stroke-miterlimit="10" d="M163.961,48.132h-43.879h-0.137h-43.88c0,0-0.971,1.132-0.485,2.427
		s8.9,13.432,8.9,13.432s19.228,28.693,26.377,37.706c1.233,1.555,4.046,4.369,6.15,5.016c1.426,0.439,2.545,0.398,3.006,0.354
		c0.461,0.045,1.581,0.086,3.006-0.354c2.104-0.646,4.916-3.461,6.148-5.016c7.15-9.013,26.379-37.706,26.379-37.706
		s8.414-12.137,8.9-13.432C164.932,49.264,163.961,48.132,163.961,48.132z"/>
</g>
<g id="drinkGlassSlimAOut">
	<g>
		<path fill="none" stroke="#00EEE3" stroke-width="2" stroke-miterlimit="10" d="M119.833,209.335h33.334v-6
			c0,0-19.334-7.334-23.334-10s-6.666-8.668-6.666-8.668l0.666-62c0,0,0-4,2-8.666c2-4.668,4.666-7.334,4.666-7.334l49.334-70.001
			v-6h-60h0.334H60.167v6l49.333,70.001c0,0,2.667,2.666,4.667,7.334c2,4.666,2,8.666,2,8.666l0.666,62c0,0-2.668,6.002-6.667,8.668
			c-4,2.666-23.333,10-23.333,10v6h33.334H119.833z"/>
	</g>
</g>
</svg>
