<?xml version="1.0" encoding="utf-8"?>
<!-- Generator: Adobe Illustrator 16.0.0, SVG Export Plug-In . SVG Version: 6.00 Build 0)  -->
<!DOCTYPE svg PUBLIC "-//W3C//DTD SVG 1.1//EN" "http://www.w3.org/Graphics/SVG/1.1/DTD/svg11.dtd">
<svg version="1.1"
	xmlns="http://www.w3.org/2000/svg"
	xmlns:xlink="http://www.w3.org/1999/xlink" x="0px" y="0px" width="240px" height="240px" viewBox="0 0 240 240" enable-background="new 0 0 240 240" xml:space="preserve">
	<g id="Warstwa_3">
		<path fill="#00A19A" d="M0,0v240h240V0H0z M172.626,85.703c0,0-9.793,69.638-11.606,78.704c-1.813,9.068-1.45,24.665-1.45,24.665
		s-0.363,6.166-2.902,8.342c-2.409,2.065-11.684,5.436-25.025,5.772v0.03c0,0,0,0-2.176,0c-1.92,0-5.532,0-12.332,0
		c-2.176,0-2.176,0-2.176,0v-0.03c-13.343-0.337-22.617-3.707-25.026-5.772c-2.539-2.176-2.902-8.342-2.902-8.342
		s0.363-15.597-1.45-24.665c-1.814-9.066-11.606-78.704-11.606-78.704S64.18,30.211,64.18,28.76c0-1.45,2.901-1.813,2.901-1.813
		h47.877h16.684h47.875c0,0,2.902,0.363,2.902,1.813C182.419,30.211,172.626,85.703,172.626,85.703z"/>
	</g>
	<g id="drinkGlassSlimABottom">
		<path fill="#008D36" stroke="#53002E" stroke-width="2" stroke-miterlimit="10" d="M179.517,26.946h-47.875h-16.684H67.081
		c0,0-2.901,0.363-2.901,1.813c0,1.451,9.793,56.943,9.793,56.943s9.792,69.638,11.606,78.704c1.813,9.068,1.45,24.665,1.45,24.665
		s0.363,6.166,2.902,8.342c2.409,2.065,11.684,5.436,25.026,5.772v0.03c0,0,0,0,2.176,0c6.8,0,10.412,0,12.332,0
		c2.176,0,2.176,0,2.176,0v-0.03c13.342-0.337,22.616-3.707,25.025-5.772c2.539-2.176,2.902-8.342,2.902-8.342
		s-0.363-15.597,1.45-24.665c1.813-9.066,11.606-78.704,11.606-78.704s9.793-55.492,9.793-56.943
		C182.419,27.31,179.517,26.946,179.517,26.946z M163.219,115.927l-6.13,40l-1.131,7.381c0,0-0.172,7.184-4.277,8.895
		c-6.806,2.836-12.396,4.157-26,4.894h-5.125c-13.604-0.736-19.194-2.058-26.001-4.894c-4.104-1.711-4.276-8.895-4.276-8.895
		l-1.131-7.381l-6.13-40l-9.672-63.111h49.259h1.027h49.258L163.219,115.927z"/>
	</g>
</svg>
