<?xml version="1.0" encoding="utf-8"?>
<!-- Generator: Adobe Illustrator 16.0.0, SVG Export Plug-In . SVG Version: 6.00 Build 0)  -->
<!DOCTYPE svg PUBLIC "-//W3C//DTD SVG 1.1//EN" "http://www.w3.org/Graphics/SVG/1.1/DTD/svg11.dtd">
<svg version="1.1" id="Warstwa_1"
	xmlns="http://www.w3.org/2000/svg"
	xmlns:xlink="http://www.w3.org/1999/xlink" x="0px" y="0px" width="165px" height="240px" viewBox="0 0 165 240" enable-background="new 0 0 165 240" xml:space="preserve">

	<path fill="#E6007E" d="M0,0v240h165V0H0z M147.858,81.072c0,0-12.975,92.271-15.378,104.287c-2.403,12.014-1.922,32.68-1.922,32.68
	s-0.481,8.17-3.846,11.053c-3.192,2.738-15.48,7.205-33.16,7.648v0.041c0,0,0,0-2.882,0c-2.544,0-7.331,0-16.341,0
	c-2.883,0-2.883,0-2.883,0v-0.041c-17.679-0.443-29.968-4.91-33.16-7.648c-3.364-2.883-3.845-11.053-3.845-11.053
	s0.48-20.666-1.922-32.68C30.116,173.344,17.142,81.072,17.142,81.072S4.165,7.545,4.165,5.622c0-1.922,3.845-2.403,3.845-2.403
	h63.438h22.105h63.438c0,0,3.845,0.481,3.845,2.403C160.835,7.545,147.858,81.072,147.858,81.072z"/>
	<g>
		<path fill="#FFED00" d="M156.99,3.219H93.553H71.447H8.01c0,0-3.845,0.481-3.845,2.403c0,1.923,12.976,75.451,12.976,75.451
		s12.975,92.271,15.379,104.286c2.402,12.014,1.922,32.68,1.922,32.68s0.48,8.17,3.845,11.053c3.192,2.738,15.481,7.205,33.16,7.648
		v0.041c0,0,0,0,2.883,0c9.01,0,13.797,0,16.341,0c2.882,0,2.882,0,2.882,0v-0.041c17.68-0.443,29.968-4.91,33.16-7.648
		c3.364-2.883,3.846-11.053,3.846-11.053s-0.481-20.666,1.922-32.68c2.403-12.016,15.378-104.286,15.378-104.286
		s12.977-73.528,12.977-75.451C160.835,3.7,156.99,3.219,156.99,3.219z M135.394,121.119l-8.122,53.002l-1.498,9.779
		c0,0-0.228,9.52-5.668,11.785c-9.018,3.76-16.424,5.51-34.449,6.484h-6.792c-18.026-0.975-25.432-2.725-34.452-6.484
		c-5.438-2.266-5.666-11.785-5.666-11.785l-1.499-9.779l-8.122-53.002L16.31,37.496h65.269h1.361h65.269L135.394,121.119z"/>
		<path fill="none" stroke="#53002E" stroke-width="2.65" stroke-miterlimit="10" d="M156.99,3.219H93.553H71.447H8.01
		c0,0-3.845,0.481-3.845,2.403c0,1.923,12.976,75.451,12.976,75.451s12.975,92.271,15.379,104.286
		c2.402,12.014,1.922,32.68,1.922,32.68s0.48,8.17,3.845,11.053c3.192,2.738,15.481,7.205,33.16,7.648v0.041c0,0,0,0,2.883,0
		c9.01,0,13.797,0,16.341,0c2.882,0,2.882,0,2.882,0v-0.041c17.68-0.443,29.968-4.91,33.16-7.648
		c3.364-2.883,3.846-11.053,3.846-11.053s-0.481-20.666,1.922-32.68c2.403-12.016,15.378-104.286,15.378-104.286
		s12.977-73.528,12.977-75.451C160.835,3.7,156.99,3.219,156.99,3.219z"/>
		<path fill="none" stroke="#53002E" stroke-width="1.325" stroke-miterlimit="10" d="M82.94,37.496h-1.361H16.31l12.816,83.623
		l8.122,53.002l1.499,9.779c0,0,0.228,9.52,5.666,11.785c9.02,3.76,16.425,5.51,34.452,6.484h6.792
		c18.025-0.975,25.432-2.725,34.449-6.484c5.44-2.266,5.668-11.785,5.668-11.785l1.498-9.779l8.122-53.002l12.815-83.623H82.94z"/>
	</g>
</svg>
