<?xml version="1.0" encoding="utf-8"?>
<!-- Generator: Adobe Illustrator 16.0.0, SVG Export Plug-In . SVG Version: 6.00 Build 0)  -->
<!DOCTYPE svg PUBLIC "-//W3C//DTD SVG 1.1//EN" "http://www.w3.org/Graphics/SVG/1.1/DTD/svg11.dtd">
<svg version="1.1" id="drinkGlassSlimABottom" xmlns="http://www.w3.org/2000/svg" xmlns:xlink="http://www.w3.org/1999/xlink"
	 x="0px" y="0px" width="240px" height="240px" viewBox="0 0 240 240" enable-background="new 0 0 240 240" xml:space="preserve">
<path fill="#E6007E" d="M0,0v240h240V0H0z M185.358,81.626c0,0-12.975,92.271-15.378,104.285c-2.403,12.014-1.922,32.68-1.922,32.68
	s-0.481,8.171-3.846,11.054c-3.192,2.738-15.48,7.204-33.16,7.648v0.041c0,0,0,0-2.882,0c-2.544,0-7.331,0-16.34,0
	c-2.883,0-2.883,0-2.883,0v-0.041c-17.68-0.444-29.968-4.91-33.161-7.648c-3.365-2.883-3.845-11.054-3.845-11.054
	s0.48-20.666-1.922-32.68C67.616,173.896,54.641,81.626,54.641,81.626S41.665,8.098,41.665,6.175c0-1.922,3.845-2.403,3.845-2.403
	h63.438h22.105h63.438c0,0,3.845,0.481,3.845,2.403C198.335,8.098,185.358,81.626,185.358,81.626z"/>
<path fill="#FFED00" d="M194.49,3.771h-63.438h-22.105H45.51c0,0-3.845,0.481-3.845,2.403c0,1.923,12.976,75.451,12.976,75.451
	s12.975,92.271,15.379,104.285c2.402,12.014,1.922,32.68,1.922,32.68s0.48,8.171,3.845,11.054
	c3.192,2.738,15.481,7.204,33.161,7.648v0.041c0,0,0,0,2.883,0c9.009,0,13.796,0,16.34,0c2.882,0,2.882,0,2.882,0v-0.041
	c17.68-0.444,29.968-4.91,33.16-7.648c3.364-2.883,3.846-11.054,3.846-11.054s-0.481-20.666,1.922-32.68
	c2.403-12.015,15.378-104.285,15.378-104.285s12.977-73.528,12.977-75.451C198.335,4.253,194.49,3.771,194.49,3.771z
	 M172.894,121.672l-8.122,53.001l-1.498,9.78c0,0-0.228,9.519-5.668,11.785c-9.018,3.759-16.424,5.51-34.449,6.483h-6.792
	c-18.026-0.974-25.432-2.725-34.452-6.483c-5.438-2.267-5.666-11.785-5.666-11.785l-1.499-9.78l-8.122-53.001L53.81,38.049h65.269
	h1.361h65.269L172.894,121.672z"/>
<path fill="none" stroke="#53002E" stroke-width="2.65" stroke-miterlimit="10" d="M194.49,3.771h-63.438h-22.105H45.51
	c0,0-3.845,0.481-3.845,2.403c0,1.923,12.976,75.451,12.976,75.451s12.975,92.271,15.379,104.285
	c2.402,12.014,1.922,32.68,1.922,32.68s0.48,8.171,3.845,11.054c3.192,2.738,15.481,7.204,33.161,7.648v0.041c0,0,0,0,2.883,0
	c9.009,0,13.796,0,16.34,0c2.882,0,2.882,0,2.882,0v-0.041c17.68-0.444,29.968-4.91,33.16-7.648
	c3.364-2.883,3.846-11.054,3.846-11.054s-0.481-20.666,1.922-32.68c2.403-12.015,15.378-104.285,15.378-104.285
	s12.977-73.528,12.977-75.451C198.335,4.253,194.49,3.771,194.49,3.771z"/>
<path fill="none" stroke="#53002E" stroke-width="1.325" stroke-miterlimit="10" d="M120.44,38.049h-1.361H53.81l12.816,83.623
	l8.122,53.001l1.499,9.78c0,0,0.228,9.519,5.666,11.785c9.02,3.759,16.426,5.51,34.452,6.483h6.792
	c18.025-0.974,25.432-2.725,34.449-6.483c5.44-2.267,5.668-11.785,5.668-11.785l1.498-9.78l8.122-53.001l12.815-83.623H120.44z"/>
</svg>
