<?xml version="1.0" encoding="utf-8"?>
<!-- Generator: Adobe Illustrator 16.0.0, SVG Export Plug-In . SVG Version: 6.00 Build 0)  -->
<!DOCTYPE svg PUBLIC "-//W3C//DTD SVG 1.1//EN" "http://www.w3.org/Graphics/SVG/1.1/DTD/svg11.dtd">
<svg version="1.1" id="Warstwa_1" xmlns="http://www.w3.org/2000/svg" xmlns:xlink="http://www.w3.org/1999/xlink" x="0px" y="0px"
	 width="80px" height="80px" viewBox="0 0 80 80" enable-background="new 0 0 80 80" xml:space="preserve">
<g>
	<path fill="none" stroke="#FCEA10" stroke-width="0.8103" stroke-miterlimit="10" d="M62.777,4.291H43.379h-6.758H17.222
		c0,0-1.175,0.147-1.175,0.735c0,0.588,3.967,23.071,3.967,23.071s3.968,28.215,4.703,31.887c0.734,3.674,0.588,9.994,0.588,9.994
		s0.146,2.498,1.176,3.379c0.976,0.838,4.733,2.203,10.14,2.34v0.012c0,0,0,0,0.881,0c2.755,0,4.219,0,4.997,0
		c0.881,0,0.881,0,0.881,0v-0.012c5.406-0.137,9.164-1.502,10.141-2.34c1.027-0.881,1.176-3.379,1.176-3.379
		s-0.148-6.32,0.588-9.994c0.734-3.672,4.701-31.887,4.701-31.887s3.969-22.483,3.969-23.071
		C63.953,4.438,62.777,4.291,62.777,4.291z"/>
	<path fill="none" stroke="#FCEA10" stroke-width="0.4052" stroke-miterlimit="10" d="M40.134,14.772h-0.416H19.76l3.919,25.57
		l2.483,16.207l0.459,2.99c0,0,0.068,2.91,1.732,3.604c2.758,1.15,5.021,1.686,10.534,1.984h2.076
		c5.512-0.299,7.778-0.834,10.534-1.984c1.664-0.693,1.734-3.604,1.734-3.604l0.457-2.99l2.484-16.207l3.918-25.57H40.134z"/>
</g>
<rect fill="none" width="80" height="80"/>
</svg>
