<?xml version="1.0" encoding="utf-8"?>
<!-- Generator: Adobe Illustrator 16.0.0, SVG Export Plug-In . SVG Version: 6.00 Build 0)  -->
<!DOCTYPE svg PUBLIC "-//W3C//DTD SVG 1.1//EN" "http://www.w3.org/Graphics/SVG/1.1/DTD/svg11.dtd">
<svg version="1.1" id="Warstwa_4" xmlns="http://www.w3.org/2000/svg" xmlns:xlink="http://www.w3.org/1999/xlink" x="0px" y="0px"
	 width="55px" height="45px" viewBox="0 0 55 45" enable-background="new 0 0 55 45" xml:space="preserve">
<g>
	<g>
		<path fill="#AEFFF6" d="M27.5,7.592c3.436,0.001,6.871,0.002,10.033,0.002l1.141-1.617l-0.002,0v-0.36h-1.723H15.656h-0.547
			l0.004,0.254l1.216,1.724C19.795,7.594,23.647,7.593,27.5,7.592z"/>
		<path fill="#AEFFF6" d="M54.016,2.893c-0.813-1.25-2.328-1.313-2.328-1.313L30.904,1.574V1.571L27.5,1.572l-3.404-0.001v0.002
			L3.313,1.581c0,0-1.516,0.063-2.328,1.313S0.422,5.502,1.063,6.346s1.578,1.203,2.172,1.234C3.42,7.59,8.216,7.594,14.721,7.594
			l-0.733-1.038h-0.021c0,0-0.119-0.17-0.098-0.423V4.851c0,0,0-0.185,0.176-0.36c0.176-0.175,0.412-0.202,0.412-0.202h0.685V4.284
			l21.891,0.005h2.354c0,0,0.236,0.027,0.412,0.202c0.176,0.176,0.176,0.36,0.176,0.36v1.282c0.021,0.253-0.098,0.423-0.098,0.423
			l-0.733,1.039c7.076,0,12.428-0.003,12.624-0.014c0.594-0.031,1.531-0.391,2.172-1.234S54.828,4.143,54.016,2.893z"/>
	</g>
	<g>
		<path fill="#AEFFF6" d="M18.68,13.201L3.313,13.206c0,0-1.516,0.063-2.328,1.313s-0.563,2.609,0.078,3.453
			s1.578,1.203,2.172,1.234c0.258,0.013,9.415,0.015,19.695,0.013L18.68,13.201z"/>
		<path fill="#AEFFF6" d="M30.904,13.199v-0.002L27.5,13.197l-3.404-0.001v0.002L20.281,13.2l3.166,4.49
			c0,0,0.503,0.698,1.087,1.527c0.984,0,1.975,0,2.966-0.001c0.61,0,1.22,0,1.828,0c0.584-0.829,1.087-1.527,1.087-1.527
			l3.166-4.491L30.904,13.199z"/>
		<path fill="#AEFFF6" d="M54.016,14.518c-0.813-1.25-2.328-1.313-2.328-1.313L35.183,13.2l-4.249,6.018
			c10.732,0.003,20.564,0.001,20.832-0.012c0.594-0.031,1.531-0.391,2.172-1.234S54.828,15.768,54.016,14.518z"/>
	</g>
	<g>
		<path fill="#AEFFF6" d="M54.016,27.144c-0.813-1.25-2.328-1.313-2.328-1.313l-20.783-0.007v-0.002l-2.541,0.001
			c-0.021,1.627-0.044,3.944-0.064,6.02c11.702,0.004,23.178,0.004,23.467-0.012c0.594-0.031,1.531-0.391,2.172-1.234
			S54.828,28.394,54.016,27.144z"/>
		<path fill="#AEFFF6" d="M26.993,31.843c0.022-2.068,0.049-4.426,0.066-6.02h-0.257c0.018,1.594,0.043,3.951,0.066,6.02
			C26.91,31.843,26.951,31.843,26.993,31.843z"/>
		<path fill="#AEFFF6" d="M25.499,25.822h-1.403v0.002L3.313,25.831c0,0-1.516,0.063-2.328,1.313s-0.563,2.609,0.078,3.453
			s1.578,1.203,2.172,1.234c0.28,0.015,11.031,0.016,22.328,0.013C25.543,29.768,25.519,27.45,25.499,25.822z"/>
	</g>
	<g>
		<path fill="#AEFFF6" d="M33.163,41.319l-0.007-0.126c0,0-3.295-1.37-3.638-1.528s-0.896-0.436-1.187-0.672
			c-0.29-0.238-0.712-0.752-0.896-1.042c-0.092-0.144-0.216-0.279-0.316-0.544h-0.377c-0.101,0.265-0.225,0.399-0.316,0.544
			c-0.184,0.29-0.606,0.804-0.896,1.042c-0.289,0.236-0.844,0.514-1.187,0.672c-0.342,0.158-3.638,1.528-3.638,1.528l-0.006,0.126
			l5.854-0.006v-0.001h0.379h0.377v0.001L33.163,41.319z"/>
		<path fill="#AEFFF6" d="M54.016,38.728c-0.813-1.25-2.328-1.313-2.328-1.313l-20.783-0.007v-0.003l-2.282,0.001
			c0.018,0.024,0.027,0.045,0.046,0.07c0.301,0.401,0.521,0.553,0.812,0.712c0.962,0.527,4.448,1.871,4.448,1.871
			s0.31,0.106,0.429,0.304c0.118,0.197,0.104,0.555,0.104,0.555v1.08c0,0-0.013,0.276-0.236,0.475
			c-0.224,0.197-0.652,0.145-0.652,0.145l-6.25,0.006v0.001h-0.391H26.54v-0.001l-6.25-0.006c0,0-0.428,0.053-0.653-0.145
			c-0.224-0.198-0.236-0.475-0.236-0.475v-1.08c0,0-0.013-0.357,0.104-0.555c0.119-0.197,0.429-0.304,0.429-0.304
			s3.487-1.344,4.449-1.871c0.29-0.159,0.511-0.311,0.811-0.712c0.02-0.025,0.028-0.046,0.046-0.07l-1.144-0.001v0.003L3.313,37.415
			c0,0-1.516,0.063-2.328,1.313s-0.563,2.609,0.078,3.453s1.578,1.203,2.172,1.234c0.296,0.016,12.292,0.016,24.266,0.012
			c11.974,0.004,23.97,0.004,24.266-0.012c0.594-0.031,1.531-0.391,2.172-1.234S54.828,39.978,54.016,38.728z"/>
	</g>
</g>
</svg>
