<?xml version="1.0" encoding="utf-8"?>
<!-- Generator: Adobe Illustrator 16.0.0, SVG Export Plug-In . SVG Version: 6.00 Build 0)  -->
<!DOCTYPE svg PUBLIC "-//W3C//DTD SVG 1.1//EN" "http://www.w3.org/Graphics/SVG/1.1/DTD/svg11.dtd">
<svg version="1.1" id="Warstwa_1" xmlns="http://www.w3.org/2000/svg" xmlns:xlink="http://www.w3.org/1999/xlink" x="0px" y="0px"
	 width="160px" height="160px" viewBox="0 0 160 160" enable-background="new 0 0 160 160" xml:space="preserve">
<g>
	<g>
		<g>
			<path fill="none" stroke="#FF8F43" stroke-width="4.0841" stroke-miterlimit="10" d="M61.802,7.14c0,0,3.496,11.889,4.895,18.183
				c1.399,6.293-0.467,16.084-3.263,23.545c-3.676,9.804-9.692,27.621-11.189,32.169c-3.265,9.907-2.564,15.268-3.031,26.692
				c-0.467,11.42,0,30.77,0.469,34.034c0.463,3.263,1.862,6.992,7.458,8.392c5.594,1.4,10.723,1.982,10.723,1.982v2.329
				l-42.428-0.115v-2.332c0,0,6.295-0.464,11.889-1.864c5.596-1.399,7.929-5.129,8.392-8.392c0.469-3.265,0.702-23.312,0.235-34.734
				s-1.166-18.881-4.195-25.643c-3.031-6.761-9.094-25.177-11.892-32.636c-2.796-7.461-4.662-17.25-3.263-23.544
				c1.398-6.295,4.896-18.184,4.896-18.184L61.802,7.14z"/>
		</g>
	</g>
	<g>
		<path fill="none" stroke="#FF93EE" stroke-width="4.0841" stroke-miterlimit="10" d="M128.503,152.859
			c0,0,3.498-11.89,4.895-18.183c1.399-6.292-0.467-16.083-3.263-23.544c-3.674-9.803-9.692-27.621-11.188-32.17
			c-3.267-9.907-2.564-15.268-3.031-26.692c-0.467-11.421,0-30.771,0.467-34.035c0.463-3.263,1.862-6.992,7.458-8.392
			s10.725-1.982,10.725-1.982V5.533L92.138,5.649V7.98c0,0,6.293,0.465,11.889,1.865s7.93,5.129,8.392,8.392
			c0.467,3.264,0.702,23.312,0.235,34.734c-0.467,11.423-1.168,18.881-4.195,25.643c-3.031,6.761-9.094,25.178-11.894,32.636
			c-2.796,7.462-4.662,17.25-3.263,23.543c1.4,6.296,4.897,18.186,4.897,18.186L128.503,152.859z"/>
	</g>
</g>
</svg>
