<?xml version="1.0" encoding="utf-8"?>
<!-- Generator: Adobe Illustrator 16.0.0, SVG Export Plug-In . SVG Version: 6.00 Build 0)  -->
<!DOCTYPE svg PUBLIC "-//W3C//DTD SVG 1.1//EN" "http://www.w3.org/Graphics/SVG/1.1/DTD/svg11.dtd">
<svg version="1.1" id="Warstwa_1" xmlns="http://www.w3.org/2000/svg" xmlns:xlink="http://www.w3.org/1999/xlink" x="0px" y="0px"
	 width="83px" height="160px" viewBox="0 0 83 160" enable-background="new 0 0 83 160" xml:space="preserve">
<g>
	<g>
		<path fill="none" stroke="#000000" stroke-width="3.8473" stroke-linecap="round" stroke-miterlimit="10" d="M5.186,50.202
			l29.942,42.486c0,0,1.618,1.618,2.831,4.452c1.216,2.829,1.216,5.26,1.216,5.26l0.403,37.627c0,0-1.619,3.645-4.047,5.261
			c-2.427,1.618-14.16,6.071-14.16,6.071V155h20.23H41.4h20.23v-3.641c0,0-11.733-4.453-14.162-6.071
			c-2.428-1.616-4.047-5.261-4.047-5.261l0.405-37.627c0,0,0-2.431,1.214-5.26c1.213-2.834,2.833-4.452,2.833-4.452l29.94-42.486
			v-3.641H41.4h0.201H16.563v-35.15l15.39,10.259L41.571,5l10.261,16.832l15.87-11.542v28.374"/>
	</g>
</g>
</svg>
