<?xml version="1.0" encoding="utf-8"?>
<!-- Generator: Adobe Illustrator 16.0.0, SVG Export Plug-In . SVG Version: 6.00 Build 0)  -->
<!DOCTYPE svg PUBLIC "-//W3C//DTD SVG 1.1//EN" "http://www.w3.org/Graphics/SVG/1.1/DTD/svg11.dtd">
<svg version="1.1" id="Warstwa_1" xmlns="http://www.w3.org/2000/svg" xmlns:xlink="http://www.w3.org/1999/xlink" x="0px" y="0px"
	 width="72px" height="32px" viewBox="0 0 72 32" enable-background="new 0 0 72 32" xml:space="preserve">
<g>
	<linearGradient id="SVGID_1_" gradientUnits="userSpaceOnUse" x1="35.9995" y1="12.1138" x2="35.9995" y2="45.2013">
		<stop  offset="0" style="stop-color:#F6F6F6"/>
		<stop  offset="1" style="stop-color:#9D9D9C"/>
	</linearGradient>
	<path fill="url(#SVGID_1_)" d="M69.827,16c0,7.473-6.058,13.531-13.531,13.531H15.704C8.231,29.531,2.173,23.473,2.173,16l0,0
		c0-7.473,6.058-13.531,13.531-13.531h40.592C63.77,2.469,69.827,8.527,69.827,16L69.827,16z"/>
	<g>
		<path fill="none" stroke="#000000" stroke-width="1.6193" stroke-miterlimit="10" d="M69.827,16
			c0,7.473-6.058,13.531-13.531,13.531H15.704C8.231,29.531,2.173,23.473,2.173,16l0,0c0-7.473,6.058-13.531,13.531-13.531h40.592
			C63.77,2.469,69.827,8.527,69.827,16L69.827,16z"/>
		<circle fill="#FF4B71" cx="56.465" cy="16" r="11.423"/>
	</g>
</g>
</svg>
