<?xml version="1.0" encoding="utf-8"?>
<!-- Generator: Adobe Illustrator 16.0.0, SVG Export Plug-In . SVG Version: 6.00 Build 0)  -->
<!DOCTYPE svg PUBLIC "-//W3C//DTD SVG 1.1//EN" "http://www.w3.org/Graphics/SVG/1.1/DTD/svg11.dtd">
<svg version="1.1" id="Warstwa_1" xmlns="http://www.w3.org/2000/svg" xmlns:xlink="http://www.w3.org/1999/xlink" x="0px" y="0px"
	 width="28px" height="42px" viewBox="0 0 28 42" enable-background="new 0 0 28 42" xml:space="preserve">
<path fill="none" stroke="#000000" stroke-width="0.9547" stroke-miterlimit="10" d="M15.168,18.881
	c0.858-0.375,1.823-1.447,2.091-2.036c0.163-0.358,0.346-1.527,0.463-2.39H8.508c0.118,0.863,0.3,2.031,0.463,2.39
	c0.269,0.589,1.232,1.661,2.09,2.036c0.857,0.375,1.018,2.09,1.125,3.216c0.107,1.125,0.375,11.147,0.322,11.951
	c-0.054,0.804-0.322,3.591-1.34,4.395c-1.018,0.805-4.931,0.965-4.931,0.965s-0.321,0.161-0.321,0.43
	c0,0.268,0.321,0.429,0.321,0.429h6.25h1.253h6.25c0,0,0.321-0.161,0.321-0.429c0-0.269-0.321-0.43-0.321-0.43
	s-3.913-0.16-4.931-0.965c-1.019-0.804-1.286-3.591-1.34-4.395c-0.054-0.804,0.215-10.826,0.322-11.951
	C14.15,20.972,14.311,19.257,15.168,18.881z"/>
<path fill="none" stroke="#000000" stroke-width="0.9547" stroke-miterlimit="10" d="M20.137,13.468c0,0,0.16-2.037,1.555-2.412
	c1.393-0.375,2.732-1.019,3.376-1.501c0.56-0.42,1.12-1.125,1.397-2.292H4.343C4.62,8.43,5.179,9.136,5.739,9.556
	c0.644,0.482,1.983,1.125,3.377,1.501c1.393,0.375,1.554,2.412,1.554,2.412s0.05,0.431,0.126,0.987h9.213
	C20.087,13.899,20.137,13.468,20.137,13.468z"/>
<path fill="none" stroke="#000000" stroke-width="0.9547" stroke-miterlimit="10" d="M23.904,2.213H13.132h-0.034H2.326
	c0,0-0.59,3.001-0.375,4.502C1.978,6.909,2.013,7.09,2.054,7.263h22.122c0.041-0.173,0.076-0.354,0.104-0.548
	C24.494,5.215,23.904,2.213,23.904,2.213z"/>
</svg>
