<svg id="svg" version="1.1" xmlns="http://www.w3.org/2000/svg" xmlns:xlink="http://www.w3.org/1999/xlink" width="400" height="400" viewBox="0, 0, 400,400"><g id="svgg"><path id="path0" d="M21.800 39.835 C 20.920 40.166,19.370 40.666,18.355 40.946 C 13.608 42.254,6.047 49.680,5.352 53.718 C 5.231 54.423,4.787 55.843,4.366 56.874 C 2.091 62.443,4.195 71.507,9.100 77.268 C 10.035 78.367,10.800 79.422,10.800 79.613 C 10.800 79.804,11.953 80.606,13.362 81.394 C 14.771 82.182,16.143 83.090,16.411 83.413 C 16.679 83.736,17.377 84.000,17.963 84.000 C 18.549 84.000,20.033 84.353,21.261 84.785 C 24.601 85.959,106.000 86.098,106.000 84.930 C 106.000 84.477,104.961 82.851,103.617 81.200 C 100.296 77.122,100.232 76.912,100.078 69.600 C 99.994 65.600,100.105 62.567,100.360 61.900 L 100.780 60.800 196.157 60.800 C 248.615 60.800,291.819 60.909,292.167 61.043 C 292.712 61.252,292.800 62.288,292.800 68.472 C 292.800 76.397,292.605 77.120,289.475 80.771 C 286.895 83.781,286.794 85.558,289.200 85.609 C 299.517 85.825,378.184 85.480,379.200 85.213 C 384.639 83.787,386.756 82.933,387.907 81.700 C 388.575 80.985,389.387 80.400,389.712 80.400 C 390.038 80.400,390.927 79.635,391.688 78.700 C 397.552 71.501,399.701 63.926,397.647 57.687 C 397.233 56.429,396.772 54.711,396.623 53.868 C 396.472 53.018,395.578 51.285,394.610 49.971 C 393.652 48.669,392.808 47.469,392.734 47.302 C 392.660 47.136,391.430 46.010,390.000 44.800 C 388.570 43.590,387.162 42.375,386.871 42.100 C 386.581 41.825,385.990 41.600,385.559 41.600 C 385.128 41.600,383.656 41.105,382.288 40.500 L 379.800 39.400 201.600 39.316 C 43.747 39.242,23.217 39.302,21.800 39.835 M109.303 70.057 C 108.736 70.624,109.081 72.640,109.979 74.000 C 110.342 74.550,110.856 75.450,111.122 76.000 C 111.387 76.550,112.508 78.170,113.611 79.600 C 114.715 81.030,115.905 82.859,116.256 83.664 C 116.744 84.786,117.186 85.183,118.147 85.361 C 121.018 85.893,274.412 85.688,275.059 85.151 C 275.828 84.513,280.937 77.492,282.684 74.673 C 284.054 72.463,284.338 70.778,283.463 70.052 C 282.681 69.403,109.953 69.407,109.303 70.057 M78.400 128.800 C 25.956 128.987,22.101 129.047,20.713 129.700 C 19.895 130.085,18.702 130.400,18.062 130.400 C 17.422 130.400,16.664 130.682,16.378 131.026 C 16.092 131.371,15.305 131.937,14.629 132.285 C 12.406 133.429,8.348 137.313,7.423 139.183 C 6.929 140.182,6.243 141.540,5.897 142.200 C 2.821 148.083,3.093 158.000,6.464 162.862 C 6.869 163.446,7.200 164.096,7.200 164.307 C 7.200 165.279,13.630 171.600,14.619 171.600 C 14.759 171.600,15.331 171.960,15.891 172.400 C 16.450 172.840,17.243 173.200,17.652 173.200 C 18.062 173.200,19.523 173.605,20.898 174.100 L 23.400 175.000 95.680 175.000 C 149.068 175.000,168.079 174.881,168.414 174.546 C 169.055 173.905,168.919 173.681,161.531 163.290 C 161.019 162.570,159.880 161.009,159.000 159.822 C 158.120 158.634,156.590 156.478,155.600 155.031 C 154.610 153.584,152.726 150.915,151.412 149.100 C 147.888 144.229,145.899 141.285,145.000 139.608 C 144.560 138.787,143.586 137.420,142.835 136.570 C 142.084 135.720,140.701 133.836,139.762 132.383 C 137.765 129.296,137.403 128.965,135.800 128.756 C 135.140 128.670,109.310 128.690,78.400 128.800 M193.800 128.801 C 169.600 128.915,149.755 129.052,149.700 129.104 C 149.130 129.649,150.559 132.489,152.863 135.391 C 153.963 136.777,155.123 138.334,155.701 139.200 C 156.068 139.750,157.633 142.000,159.179 144.200 C 160.724 146.400,162.612 149.100,163.372 150.200 C 164.133 151.300,165.672 153.460,166.792 155.000 C 167.912 156.540,169.137 158.309,169.514 158.931 C 169.891 159.553,170.875 160.981,171.700 162.104 C 172.525 163.226,173.200 164.283,173.200 164.451 C 173.200 164.620,174.058 165.803,175.108 167.079 C 176.157 168.356,177.792 170.606,178.742 172.081 C 180.906 175.440,179.816 175.268,197.800 175.093 C 213.008 174.944,212.749 174.977,213.580 173.101 C 213.893 172.393,214.521 171.429,214.975 170.958 C 215.429 170.487,216.160 169.502,216.600 168.770 C 218.040 166.373,218.237 166.068,219.023 165.007 C 221.277 161.965,224.040 158.143,225.985 155.379 C 227.186 153.671,228.485 151.980,228.870 151.621 C 229.255 151.262,229.837 150.331,230.162 149.552 C 230.488 148.773,231.024 147.912,231.355 147.637 C 231.686 147.363,232.545 146.207,233.265 145.069 C 233.985 143.931,234.691 142.910,234.834 142.800 C 234.977 142.690,235.777 141.520,236.612 140.200 C 237.448 138.880,238.301 137.687,238.509 137.549 C 238.717 137.412,239.273 136.665,239.744 135.889 C 240.215 135.114,241.372 133.358,242.315 131.988 C 243.259 130.618,243.948 129.415,243.847 129.314 C 243.464 128.930,240.542 128.423,239.200 128.506 C 238.430 128.554,218.000 128.687,193.800 128.801 M255.787 129.654 C 255.120 130.128,253.770 131.704,252.787 133.158 C 251.804 134.611,250.895 135.890,250.767 136.000 C 250.544 136.191,244.433 144.715,243.217 146.530 C 242.897 147.008,241.862 148.437,240.917 149.704 C 239.973 150.972,239.200 152.159,239.200 152.343 C 239.200 152.527,238.884 153.042,238.499 153.486 C 238.113 153.931,236.898 155.601,235.799 157.197 C 234.699 158.793,233.530 160.397,233.200 160.761 C 232.439 161.600,230.400 164.704,230.400 165.024 C 230.400 165.157,229.797 166.016,229.060 166.933 C 228.323 167.850,227.385 169.185,226.974 169.900 C 226.563 170.615,226.090 171.200,225.922 171.200 C 225.754 171.200,225.253 171.913,224.808 172.784 L 224.000 174.368 225.500 174.805 C 226.568 175.116,248.984 175.207,303.400 175.121 L 379.800 175.000 382.148 173.900 C 383.440 173.295,384.896 172.800,385.384 172.800 C 386.861 172.800,394.151 166.246,394.582 164.531 C 394.721 163.975,395.200 163.027,395.645 162.424 C 396.091 161.822,396.615 160.715,396.811 159.964 C 397.007 159.214,397.445 157.616,397.784 156.413 C 398.614 153.466,398.561 149.664,397.649 146.887 C 397.237 145.629,396.777 144.082,396.629 143.449 C 396.480 142.815,395.918 141.648,395.379 140.856 C 394.841 140.063,394.400 139.214,394.400 138.970 C 394.400 138.474,390.952 134.961,388.318 132.774 C 387.373 131.989,385.790 131.123,384.800 130.848 C 383.810 130.574,382.370 130.046,381.600 129.675 C 380.308 129.052,375.440 128.992,318.600 128.896 L 256.999 128.793 255.787 129.654 M20.800 220.654 C 18.710 221.207,16.640 221.987,16.200 222.387 C 15.760 222.786,14.860 223.239,14.200 223.391 C 11.913 223.920,6.657 230.695,4.659 235.689 C 2.590 240.862,3.496 248.824,6.814 254.624 C 8.319 257.256,15.452 264.000,16.729 264.000 C 16.974 264.000,18.554 264.450,20.239 265.000 L 23.302 266.000 104.351 265.994 C 154.666 265.990,185.628 265.844,186.000 265.609 C 186.721 265.154,186.741 263.182,186.282 237.812 C 186.047 224.835,185.837 220.144,185.482 219.918 C 185.217 219.750,148.910 219.621,104.800 219.631 L 24.600 219.649 20.800 220.654 M207.651 220.300 C 206.825 220.990,206.809 221.319,206.543 243.276 L 206.272 265.553 207.236 265.788 C 207.766 265.917,246.990 265.972,294.400 265.911 L 380.600 265.800 382.123 264.931 C 382.961 264.453,384.335 263.946,385.177 263.804 C 386.019 263.662,387.044 263.237,387.454 262.861 C 387.864 262.484,388.889 261.654,389.731 261.017 C 391.795 259.454,396.039 253.428,396.644 251.200 C 396.913 250.210,397.418 248.612,397.767 247.650 C 400.880 239.047,393.835 225.225,384.537 221.694 C 378.813 219.519,382.349 219.600,292.571 219.600 C 213.078 219.600,208.443 219.638,207.651 220.300 M195.375 221.640 C 194.660 222.797,195.667 251.137,196.449 251.844 C 196.865 252.220,197.286 252.447,197.385 252.349 C 197.519 252.214,197.728 224.741,197.618 221.700 C 197.596 221.083,195.750 221.034,195.375 221.640 M26.800 309.172 C 23.905 309.351,21.649 309.705,20.713 310.128 C 19.895 310.498,18.707 310.800,18.073 310.800 C 15.890 310.800,8.924 316.888,6.741 320.703 C 3.857 325.744,2.670 334.047,4.240 338.200 C 4.573 339.080,4.990 340.253,5.168 340.807 C 6.186 343.981,12.366 351.353,14.379 351.795 C 15.005 351.933,15.834 352.395,16.221 352.823 C 16.607 353.250,17.241 353.600,17.629 353.600 C 18.016 353.600,19.204 354.005,20.267 354.500 L 22.200 355.400 200.600 355.400 L 379.000 355.400 382.761 354.066 C 394.115 350.041,401.127 337.251,397.600 327.000 C 397.160 325.721,396.800 324.379,396.800 324.019 C 396.800 323.401,394.578 319.789,392.420 316.900 C 390.477 314.298,386.870 311.910,382.629 310.417 L 378.600 309.000 296.000 309.020 C 241.326 309.033,213.159 309.176,212.687 309.443 C 211.438 310.149,214.958 312.551,221.400 315.386 C 222.720 315.967,224.340 316.691,225.000 316.995 C 225.660 317.299,227.550 318.108,229.200 318.793 C 230.850 319.478,233.010 320.378,234.000 320.795 C 234.990 321.211,237.060 322.022,238.600 322.597 C 240.140 323.172,241.778 323.828,242.239 324.056 C 242.700 324.284,244.320 324.917,245.839 325.463 C 247.358 326.009,249.187 326.668,249.905 326.927 C 250.622 327.187,251.332 327.759,251.483 328.199 C 251.800 329.127,251.699 343.915,251.372 344.445 C 251.012 345.028,142.264 344.904,141.680 344.320 C 141.063 343.703,141.004 329.113,141.614 327.974 C 141.842 327.548,142.427 327.199,142.914 327.199 C 143.401 327.198,144.371 326.849,145.069 326.423 C 145.767 325.998,147.275 325.371,148.421 325.031 C 149.566 324.691,150.705 324.253,150.951 324.058 C 151.198 323.864,152.120 323.477,153.000 323.200 C 153.880 322.923,154.780 322.556,155.000 322.384 C 155.220 322.213,156.570 321.680,158.000 321.201 C 159.430 320.721,161.680 319.812,163.000 319.181 C 164.320 318.550,166.750 317.462,168.400 316.764 C 177.037 313.109,181.443 310.483,180.507 309.547 C 179.969 309.009,35.173 308.656,26.800 309.172 M194.500 309.089 C 193.677 309.191,192.942 309.624,192.500 310.267 C 191.847 311.215,188.910 314.694,186.937 316.854 C 185.064 318.906,176.928 323.600,175.245 323.600 C 174.834 323.600,174.274 323.870,174.000 324.200 C 173.726 324.530,173.228 324.800,172.893 324.800 C 172.558 324.800,170.949 325.442,169.317 326.227 C 165.482 328.072,160.922 329.981,159.400 330.379 C 158.740 330.552,157.660 330.975,157.000 331.318 C 156.340 331.661,155.080 332.138,154.200 332.378 C 151.974 332.984,150.043 334.603,150.728 335.288 C 152.004 336.565,242.800 336.119,242.800 334.836 C 242.800 334.458,238.079 332.000,237.353 332.000 C 237.060 332.000,236.230 331.641,235.510 331.201 C 234.789 330.762,233.953 330.402,233.650 330.401 C 233.058 330.400,229.080 328.767,226.800 327.590 C 226.030 327.192,224.006 326.314,222.303 325.639 C 220.600 324.963,218.890 324.258,218.503 324.071 C 218.116 323.885,215.820 322.778,213.400 321.613 C 208.582 319.293,204.169 315.529,201.363 311.349 C 199.690 308.855,198.787 308.557,194.500 309.089 " stroke="none" fill="#b1f9f1" fill-rule="evenodd"></path><path id="path1" d="M0.000 200.000 L 0.000 400.000 200.000 400.000 L 400.000 400.000 400.000 200.000 L 400.000 0.000 200.000 0.000 L 0.000 0.000 0.000 200.000 M382.288 40.500 C 383.656 41.105,385.128 41.600,385.559 41.600 C 385.990 41.600,386.581 41.825,386.871 42.100 C 387.162 42.375,388.570 43.590,390.000 44.800 C 391.430 46.010,392.660 47.136,392.734 47.302 C 392.808 47.469,393.652 48.669,394.610 49.971 C 395.578 51.285,396.472 53.018,396.623 53.868 C 396.772 54.711,397.233 56.429,397.647 57.687 C 399.701 63.926,397.552 71.501,391.688 78.700 C 390.927 79.635,390.038 80.400,389.712 80.400 C 389.387 80.400,388.575 80.985,387.907 81.700 C 386.756 82.933,384.639 83.787,379.200 85.213 C 378.184 85.480,299.517 85.825,289.200 85.609 C 286.794 85.558,286.895 83.781,289.475 80.771 C 292.605 77.120,292.800 76.397,292.800 68.472 C 292.800 62.288,292.712 61.252,292.167 61.043 C 291.819 60.909,248.615 60.800,196.157 60.800 L 100.780 60.800 100.360 61.900 C 100.105 62.567,99.994 65.600,100.078 69.600 C 100.232 76.912,100.296 77.122,103.617 81.200 C 104.961 82.851,106.000 84.477,106.000 84.930 C 106.000 86.098,24.601 85.959,21.261 84.785 C 20.033 84.353,18.549 84.000,17.963 84.000 C 17.377 84.000,16.679 83.736,16.411 83.413 C 16.143 83.090,14.771 82.182,13.362 81.394 C 11.953 80.606,10.800 79.804,10.800 79.613 C 10.800 79.422,10.035 78.367,9.100 77.268 C 4.195 71.507,2.091 62.443,4.366 56.874 C 4.787 55.843,5.231 54.423,5.352 53.718 C 6.047 49.680,13.608 42.254,18.355 40.946 C 19.370 40.666,20.920 40.166,21.800 39.835 C 23.217 39.302,43.747 39.242,201.600 39.316 L 379.800 39.400 382.288 40.500 M283.463 70.052 C 284.338 70.778,284.054 72.463,282.684 74.673 C 280.937 77.492,275.828 84.513,275.059 85.151 C 274.412 85.688,121.018 85.893,118.147 85.361 C 117.186 85.183,116.744 84.786,116.256 83.664 C 115.905 82.859,114.715 81.030,113.611 79.600 C 112.508 78.170,111.387 76.550,111.122 76.000 C 110.856 75.450,110.342 74.550,109.979 74.000 C 109.081 72.640,108.736 70.624,109.303 70.057 C 109.953 69.407,282.681 69.403,283.463 70.052 M137.527 129.327 C 137.816 129.555,138.822 130.931,139.762 132.383 C 140.701 133.836,142.084 135.720,142.835 136.570 C 143.586 137.420,144.560 138.787,145.000 139.608 C 145.899 141.285,147.888 144.229,151.412 149.100 C 152.726 150.915,154.610 153.584,155.600 155.031 C 156.590 156.478,158.120 158.634,159.000 159.822 C 159.880 161.009,161.019 162.570,161.531 163.290 C 168.919 173.681,169.055 173.905,168.414 174.546 C 168.079 174.881,149.068 175.000,95.680 175.000 L 23.400 175.000 20.898 174.100 C 19.523 173.605,18.062 173.200,17.652 173.200 C 17.243 173.200,16.450 172.840,15.891 172.400 C 15.331 171.960,14.759 171.600,14.619 171.600 C 13.630 171.600,7.200 165.279,7.200 164.307 C 7.200 164.096,6.869 163.446,6.464 162.862 C 3.093 158.000,2.821 148.083,5.897 142.200 C 6.243 141.540,6.929 140.182,7.423 139.183 C 8.348 137.313,12.406 133.429,14.629 132.285 C 15.305 131.937,16.092 131.371,16.378 131.026 C 16.664 130.682,17.422 130.400,18.062 130.400 C 18.702 130.400,19.895 130.085,20.713 129.700 C 22.101 129.047,25.956 128.987,78.400 128.800 C 135.669 128.596,136.609 128.605,137.527 129.327 M242.132 128.775 C 244.240 129.264,244.236 129.199,242.315 131.988 C 241.372 133.358,240.215 135.114,239.744 135.889 C 239.273 136.665,238.717 137.412,238.509 137.549 C 238.301 137.687,237.448 138.880,236.612 140.200 C 235.777 141.520,234.977 142.690,234.834 142.800 C 234.691 142.910,233.985 143.931,233.265 145.069 C 232.545 146.207,231.686 147.363,231.355 147.637 C 231.024 147.912,230.488 148.773,230.162 149.552 C 229.837 150.331,229.255 151.262,228.870 151.621 C 228.485 151.980,227.186 153.671,225.985 155.379 C 224.040 158.143,221.277 161.965,219.023 165.007 C 218.237 166.068,218.040 166.373,216.600 168.770 C 216.160 169.502,215.429 170.487,214.975 170.958 C 214.521 171.429,213.893 172.393,213.580 173.101 C 212.749 174.977,213.008 174.944,197.800 175.093 C 179.816 175.268,180.906 175.440,178.742 172.081 C 177.792 170.606,176.157 168.356,175.108 167.079 C 174.058 165.803,173.200 164.620,173.200 164.451 C 173.200 164.283,172.525 163.226,171.700 162.104 C 170.875 160.981,169.891 159.553,169.514 158.931 C 169.137 158.309,167.912 156.540,166.792 155.000 C 165.672 153.460,164.133 151.300,163.372 150.200 C 162.612 149.100,160.724 146.400,159.179 144.200 C 157.633 142.000,156.068 139.750,155.701 139.200 C 155.123 138.334,153.963 136.777,152.863 135.391 C 150.559 132.489,149.130 129.649,149.700 129.104 C 149.755 129.052,169.600 128.915,193.800 128.801 C 218.000 128.687,238.430 128.554,239.200 128.506 C 239.970 128.458,241.289 128.579,242.132 128.775 M381.600 129.675 C 382.370 130.046,383.810 130.574,384.800 130.848 C 385.790 131.123,387.373 131.989,388.318 132.774 C 390.952 134.961,394.400 138.474,394.400 138.970 C 394.400 139.214,394.841 140.063,395.379 140.856 C 395.918 141.648,396.480 142.815,396.629 143.449 C 396.777 144.082,397.237 145.629,397.649 146.887 C 398.561 149.664,398.614 153.466,397.784 156.413 C 397.445 157.616,397.007 159.214,396.811 159.964 C 396.615 160.715,396.091 161.822,395.645 162.424 C 395.200 163.027,394.721 163.975,394.582 164.531 C 394.151 166.246,386.861 172.800,385.384 172.800 C 384.896 172.800,383.440 173.295,382.148 173.900 L 379.800 175.000 303.400 175.121 C 248.984 175.207,226.568 175.116,225.500 174.805 L 224.000 174.368 224.808 172.784 C 225.253 171.913,225.754 171.200,225.922 171.200 C 226.090 171.200,226.563 170.615,226.974 169.900 C 227.385 169.185,228.323 167.850,229.060 166.933 C 229.797 166.016,230.400 165.157,230.400 165.024 C 230.400 164.704,232.439 161.600,233.200 160.761 C 233.530 160.397,234.699 158.793,235.799 157.197 C 236.898 155.601,238.113 153.931,238.499 153.486 C 238.884 153.042,239.200 152.527,239.200 152.343 C 239.200 152.159,239.973 150.972,240.917 149.704 C 241.862 148.437,242.897 147.008,243.217 146.530 C 244.433 144.715,250.544 136.191,250.767 136.000 C 250.895 135.890,251.804 134.611,252.787 133.158 C 253.770 131.704,255.120 130.128,255.787 129.654 L 256.999 128.793 318.600 128.896 C 375.440 128.992,380.308 129.052,381.600 129.675 M185.482 219.918 C 185.837 220.144,186.047 224.835,186.282 237.812 C 186.741 263.182,186.721 265.154,186.000 265.609 C 185.628 265.844,154.666 265.990,104.351 265.994 L 23.302 266.000 20.239 265.000 C 18.554 264.450,16.974 264.000,16.729 264.000 C 15.452 264.000,8.319 257.256,6.814 254.624 C 3.496 248.824,2.590 240.862,4.659 235.689 C 6.657 230.695,11.913 223.920,14.200 223.391 C 14.860 223.239,15.760 222.786,16.200 222.387 C 16.640 221.987,18.710 221.207,20.800 220.654 L 24.600 219.649 104.800 219.631 C 148.910 219.621,185.217 219.750,185.482 219.918 M378.963 220.027 C 385.836 221.298,391.101 224.866,394.858 230.800 C 397.956 235.694,399.292 243.434,397.767 247.650 C 397.418 248.612,396.913 250.210,396.644 251.200 C 396.039 253.428,391.795 259.454,389.731 261.017 C 388.889 261.654,387.864 262.484,387.454 262.861 C 387.044 263.237,386.019 263.662,385.177 263.804 C 384.335 263.946,382.961 264.453,382.123 264.931 L 380.600 265.800 294.400 265.911 C 246.990 265.972,207.766 265.917,207.236 265.788 L 206.272 265.553 206.543 243.276 C 206.809 221.319,206.825 220.990,207.651 220.300 C 208.664 219.453,374.432 219.189,378.963 220.027 M197.618 221.700 C 197.728 224.741,197.519 252.214,197.385 252.349 C 195.978 253.755,194.020 223.833,195.375 221.640 C 195.750 221.034,197.596 221.083,197.618 221.700 M180.507 309.547 C 181.443 310.483,177.037 313.109,168.400 316.764 C 166.750 317.462,164.320 318.550,163.000 319.181 C 161.680 319.812,159.430 320.721,158.000 321.201 C 156.570 321.680,155.220 322.213,155.000 322.384 C 154.780 322.556,153.880 322.923,153.000 323.200 C 152.120 323.477,151.198 323.864,150.951 324.058 C 150.705 324.253,149.566 324.691,148.421 325.031 C 147.275 325.371,145.767 325.998,145.069 326.423 C 144.371 326.849,143.401 327.198,142.914 327.199 C 142.427 327.199,141.842 327.548,141.614 327.974 C 141.004 329.113,141.063 343.703,141.680 344.320 C 142.264 344.904,251.012 345.028,251.372 344.445 C 251.699 343.915,251.800 329.127,251.483 328.199 C 251.332 327.759,250.622 327.187,249.905 326.927 C 249.187 326.668,247.358 326.009,245.839 325.463 C 244.320 324.917,242.700 324.284,242.239 324.056 C 241.778 323.828,240.140 323.172,238.600 322.597 C 237.060 322.022,234.990 321.211,234.000 320.795 C 233.010 320.378,230.850 319.478,229.200 318.793 C 227.550 318.108,225.660 317.299,225.000 316.995 C 224.340 316.691,222.720 315.967,221.400 315.386 C 214.958 312.551,211.438 310.149,212.687 309.443 C 213.159 309.176,241.326 309.033,296.000 309.020 L 378.600 309.000 382.629 310.417 C 386.870 311.910,390.477 314.298,392.420 316.900 C 394.578 319.789,396.800 323.401,396.800 324.019 C 396.800 324.379,397.160 325.721,397.600 327.000 C 401.127 337.251,394.115 350.041,382.761 354.066 L 379.000 355.400 200.600 355.400 L 22.200 355.400 20.267 354.500 C 19.204 354.005,18.016 353.600,17.629 353.600 C 17.241 353.600,16.607 353.250,16.221 352.823 C 15.834 352.395,15.005 351.933,14.379 351.795 C 12.366 351.353,6.186 343.981,5.168 340.807 C 4.990 340.253,4.573 339.080,4.240 338.200 C 2.670 334.047,3.857 325.744,6.741 320.703 C 8.924 316.888,15.890 310.800,18.073 310.800 C 18.707 310.800,19.895 310.498,20.713 310.128 C 21.649 309.705,23.905 309.351,26.800 309.172 C 35.173 308.656,179.969 309.009,180.507 309.547 M198.743 309.049 C 199.663 309.233,200.346 309.832,201.363 311.349 C 204.169 315.529,208.582 319.293,213.400 321.613 C 215.820 322.778,218.116 323.885,218.503 324.071 C 218.890 324.258,220.600 324.963,222.303 325.639 C 224.006 326.314,226.030 327.192,226.800 327.590 C 229.080 328.767,233.058 330.400,233.650 330.401 C 233.953 330.402,234.789 330.762,235.510 331.201 C 236.230 331.641,237.060 332.000,237.353 332.000 C 238.079 332.000,242.800 334.458,242.800 334.836 C 242.800 336.119,152.004 336.565,150.728 335.288 C 150.043 334.603,151.974 332.984,154.200 332.378 C 155.080 332.138,156.340 331.661,157.000 331.318 C 157.660 330.975,158.740 330.552,159.400 330.379 C 160.922 329.981,165.482 328.072,169.317 326.227 C 170.949 325.442,172.558 324.800,172.893 324.800 C 173.228 324.800,173.726 324.530,174.000 324.200 C 174.274 323.870,174.834 323.600,175.245 323.600 C 176.928 323.600,185.064 318.906,186.937 316.854 C 188.910 314.694,191.847 311.215,192.500 310.267 C 193.332 309.057,196.092 308.518,198.743 309.049 " stroke="none" fill="#050607" fill-rule="evenodd"></path></g></svg>