<?xml version="1.0" encoding="utf-8"?>
<!-- Generator: Adobe Illustrator 16.0.0, SVG Export Plug-In . SVG Version: 6.00 Build 0)  -->
<!DOCTYPE svg PUBLIC "-//W3C//DTD SVG 1.1//EN" "http://www.w3.org/Graphics/SVG/1.1/DTD/svg11.dtd">
<svg version="1.1" xmlns="http://www.w3.org/2000/svg" xmlns:xlink="http://www.w3.org/1999/xlink" x="0px" y="0px" width="100px"
	 height="150px" viewBox="0 0 100 150" enable-background="new 0 0 100 150" xml:space="preserve">
<g id="Warstwa_1" display="none">
	<path display="inline" fill="none" stroke="#F88681" stroke-width="1.162" stroke-miterlimit="10" d="M91.78,1.325H50.064h-0.129
		H8.221c0,0-2.283,11.622-1.453,17.433c0.83,5.811,3.32,9.131,5.811,10.999c2.491,1.868,7.679,4.358,13.075,5.811
		c5.396,1.453,6.018,9.339,6.018,9.339s1.245,10.792,2.283,13.075c1.038,2.283,4.773,6.433,8.094,7.886
		c3.321,1.453,3.943,8.094,4.358,12.452c0.416,4.358,1.453,43.167,1.246,46.28c-0.208,3.113-1.246,13.905-5.189,17.019
		c-3.943,3.112-19.093,3.736-19.093,3.736s-1.245,0.621-1.245,1.659c0,1.037,1.245,1.66,1.245,1.66h24.204h4.852h24.203
		c0,0,1.246-0.623,1.246-1.66c0-1.038-1.246-1.659-1.246-1.659s-15.149-0.624-19.093-3.736c-3.943-3.113-4.98-13.905-5.188-17.019
		c-0.207-3.113,0.83-41.922,1.245-46.28c0.416-4.358,1.037-10.999,4.358-12.452s7.057-5.603,8.094-7.886
		c1.038-2.283,2.283-13.075,2.283-13.075s0.622-7.887,6.019-9.339c5.396-1.453,10.584-3.943,13.074-5.811s4.98-5.188,5.811-10.999
		C94.063,12.947,91.78,1.325,91.78,1.325z"/>
</g>
<g id="Warstwa_4" display="none">
	<path display="inline" fill="#F88681" d="M37.927,58.734c2.576,3.334,6.89,4.921,6.89,4.921h3.736h2.761h3.735
		c0,0,4.314-1.587,6.891-4.921c2.603-3.368,3.298-8.277,3.479-11.593H34.447C34.629,50.457,35.324,55.366,37.927,58.734z"/>
</g>
<g id="Warstwa_3" display="none">
	<path display="inline" fill="#FCEA10" d="M89.499,18.771c0.787-5.315-0.984-13.78-0.984-13.78H56.235H43.631H11.351
		c0,0-1.772,8.465-0.984,13.78c0.055,0.368,0.114,0.719,0.175,1.062h78.782C89.386,19.491,89.444,19.139,89.499,18.771z"/>
</g>
<g id="Warstwa_2" display="none">
	<path display="inline" fill="#F9B233" d="M70.01,35.307c2.954-1.772,9.056-2.558,13.78-6.102c3.172-2.378,4.703-4.767,5.533-9.372
		H10.542c0.832,4.605,2.362,6.994,5.534,9.372c4.725,3.544,10.827,4.33,13.781,6.102c2.952,1.773,4.527,6.693,4.527,9.45
		c0,0.612,0.012,1.437,0.064,2.384h30.972c0.052-0.947,0.063-1.772,0.063-2.384C65.482,42,67.058,37.08,70.01,35.307z"/>
</g>
<g id="Warstwa_5">
	<path fill="none" stroke="#F88681" stroke-width="0.581" stroke-miterlimit="10" d="M88.515,4.991H56.235H43.631H11.351
		c0,0-1.772,8.465-0.984,13.78c0.055,0.368,0.114,0.719,0.175,1.062c0.832,4.605,2.362,6.994,5.534,9.372
		c4.725,3.544,10.827,4.33,13.781,6.102c2.952,1.773,4.527,6.693,4.527,9.45c0,0.612,0.012,1.437,0.064,2.384
		c0.182,3.316,0.877,8.225,3.479,11.593c2.576,3.334,6.89,4.921,6.89,4.921h3.736h2.761h3.735c0,0,4.314-1.587,6.891-4.921
		c2.603-3.368,3.298-8.277,3.479-11.593c0.052-0.947,0.063-1.772,0.063-2.384c0-2.756,1.575-7.677,4.527-9.45
		c2.954-1.772,9.056-2.558,13.78-6.102c3.172-2.378,4.703-4.767,5.533-9.372c0.063-0.343,0.121-0.694,0.176-1.062
		C90.286,13.456,88.515,4.991,88.515,4.991z"/>
</g>
</svg>
