<?xml version="1.0" encoding="UTF-8" standalone="no"?>
<svg xmlns:dc="http://purl.org/dc/elements/1.1/"
	xmlns:cc="http://creativecommons.org/ns#"
	xmlns:rdf="http://www.w3.org/1999/02/22-rdf-syntax-ns#"
	xmlns:svg="http://www.w3.org/2000/svg"
	xmlns="http://www.w3.org/2000/svg" xml:space="preserve" viewBox="0 0 48 152" height="152" width="48" y="0" x="0" id="Warstwa_1" version="1.1">

	<g transform="translate(-90.09595,-3.4853594)" id="g6">
		<g id="g4">
			<path id="path2" d="m 128.503,152.859 c 0,0 3.498,-11.89 4.895,-18.183 1.399,-6.292 -0.467,-16.083 -3.263,-23.544 -3.674,-9.803 -9.692,-27.621 -11.188,-32.17 -3.267,-9.907 -2.564,-15.268 -3.031,-26.692 -0.467,-11.421 0,-30.771 0.467,-34.035 0.463,-3.263 1.862,-6.992 7.458,-8.392 5.596,-1.4 10.725,-1.982 10.725,-1.982 V 5.533 L 92.138,5.649 V 7.98 c 0,0 6.293,0.465 11.889,1.865 5.596,1.4 7.93,5.129 8.392,8.392 0.467,3.264 0.702,23.312 0.235,34.734 -0.467,11.423 -1.168,18.881 -4.195,25.643 -3.031,6.761 -9.094,25.178 -11.894,32.636 -2.796,7.462 -4.662,17.25 -3.263,23.543 1.4,6.296 4.897,18.186 4.897,18.186 z" stroke-miterlimit="10" stroke-width="4.0841" stroke="#ff93ee" fill="none" />
		</g>
	</g>
</svg>
