<?xml version="1.0" encoding="UTF-8" standalone="no"?>
<svg
   xmlns:dc="http://purl.org/dc/elements/1.1/"
   xmlns:cc="http://creativecommons.org/ns#"
   xmlns:rdf="http://www.w3.org/1999/02/22-rdf-syntax-ns#"
   xmlns:svg="http://www.w3.org/2000/svg"
   xmlns="http://www.w3.org/2000/svg"
   xmlns:sodipodi="http://sodipodi.sourceforge.net/DTD/sodipodi-0.dtd"
   xmlns:inkscape="http://www.inkscape.org/namespaces/inkscape"
   sodipodi:docname="want.svg"
   id="svg36"
   version="1.1"
   viewBox="0 0 12 40"
   height="40"
   width="12">

  <g
     transform="translate(-95.686924,-104.13897)"
     id="layer1"
     inkscape:groupmode="layer"
     inkscape:label="Layer 1">
    <path
       fill="none"
       stroke="#ff8f43"
       stroke-width="1.08058"
       stroke-miterlimit="10"
       d="m 105.84905,104.71202 c 0,0 0.92498,3.14563 1.29513,4.81092 0.37015,1.66502 -0.12356,4.25556 -0.86333,6.22961 -0.97261,2.59398 -2.56435,7.30806 -2.96043,8.51138 -0.86386,2.62123 -0.67839,4.03966 -0.80195,7.06226 -0.12356,3.02155 0,8.14123 0.12409,9.00483 0.1225,0.86334 0.49265,1.84997 1.97326,2.22039 1.48008,0.37041 2.83713,0.5244 2.83713,0.5244 v 0.61621 l -11.225736,-0.0304 v -0.617 c 0,0 1.66555,-0.12277 3.14563,-0.49319 1.480606,-0.37015 2.097876,-1.35704 2.220376,-2.22038 0.12409,-0.86386 0.18574,-6.16797 0.0622,-9.19004 -0.12356,-3.02207 -0.3085,-4.9956 -1.10993,-6.78471 -0.801946,-1.78885 -2.406116,-6.66141 -3.146416,-8.63494 -0.73978,-1.97406 -1.23349,-4.56406 -0.86334,-6.22935 0.36989,-1.66555 1.2954,-4.81118 1.2954,-4.81118 z"
       id="path2" />
  </g>
</svg>
